Coordinates
version=1
nRows=9
nColumns=24
inDegrees=yes

Units are S.I. units (second, meters, Newtons, ...)
Angles are in degrees.

endheader
time	pelvis_tilt	pelvis_list	pelvis_rotation	pelvis_tx	pelvis_ty	pelvis_tz	hip_flexion_r	hip_adduction_r	hip_rotation_r	knee_angle_r	ankle_angle_r	subtalar_angle_r	mtp_angle_r	hip_flexion_l	hip_adduction_l	hip_rotation_l	knee_angle_l	ankle_angle_l	subtalar_angle_l	mtp_angle_l	lumbar_extension	lumbar_bending	lumbar_rotation
      5.09500000	    -17.61417385	      4.97830216	     -0.96268348	     -0.93991876	     -0.01536265	     -0.32943587	     34.02713812	     -5.80615989	      0.88918845	    -62.24172322	     -4.43000029	    -10.57632298	     22.43934536	     25.33009142	      7.46704560	     -8.44896495	    -20.36119007	      5.43468094	     -1.34047523	      8.31001959	     19.62317849	     -6.78574537	    -10.38572582
      5.10000000	    -17.51594149	      4.67608536	     -0.73497876	     -0.93371674	     -0.01433299	     -0.33005021	     34.51138865	     -5.60756956	      0.37793082	    -61.66438584	     -3.86973941	    -10.84589438	     21.62190055	     24.49800536	      7.34098717	     -8.18070699	    -19.86447555	      5.48308812	     -1.18222366	      8.27271676	     19.46005224	     -6.58985514	    -10.83698251
      5.10500000	    -17.57430741	      4.34372807	     -0.54295363	     -0.92756911	     -0.01355162	     -0.33064636	     35.15753131	     -5.35673804	     -0.07010448	    -61.00440517	     -3.30268980	    -10.97887670	     21.32604534	     23.87029548	      7.14612409	     -7.99475417	    -19.42670425	      5.58856419	     -0.97902368	      8.27188447	     19.47218710	     -6.33845713	    -11.24576185
      5.11000000	    -17.50368210	      4.07567395	     -0.33285598	     -0.92138101	     -0.01268887	     -0.33121169	     35.64990473	     -5.20855134	     -0.59282953	    -60.30670657	     -2.82059121	    -11.22026810	     20.46360603	     23.06906905	      7.02700659	     -7.74838515	    -18.92397913	      5.66565329	     -0.76765731	      8.20784443	     19.34904208	     -6.17127765	    -11.64191170
      5.11500000	    -17.56029680	      3.76397427	     -0.13504325	     -0.91524274	     -0.01201003	     -0.33175398	     36.25435434	     -5.00047075	     -1.07801771	    -59.50930632	     -2.36162789	    -11.38666219	     20.02199643	     22.43915721	      6.83862409	     -7.56332494	    -18.47512788	      5.76318246	     -0.54059919	      8.18749162	     19.36107910	     -5.95032255	    -12.07668753
      5.12000000	    -17.53130966	      3.48795773	      0.06828331	     -0.90907682	     -0.01130479	     -0.33229067	     36.74395148	     -4.85971965	     -1.62465505	    -58.65767001	     -1.92590279	    -11.54866393	     19.24464690	     21.70441534	      6.68683645	     -7.37249665	    -18.00268661	      5.84703703	     -0.30645870	      8.12684276	     19.28583269	     -5.76675902	    -12.42821254
      5.12500000	    -17.62058135	      3.20761041	      0.21260244	     -0.90291953	     -0.01078266	     -0.33275370	     37.35113176	     -4.66606592	     -2.06219408	    -57.72074693	     -1.53307013	    -11.59784651	     18.96891536	     21.10445374	      6.49839129	     -7.25539391	    -17.53397163	      5.93598816	     -0.10319399	      8.10815504	     19.34915169	     -5.56007468	    -12.77953983
      5.13000000	    -17.65227844	      2.92915139	      0.44109841	     -0.89677747	     -0.01024354	     -0.33327563	     37.85172807	     -4.54583545	     -2.62739991	    -56.70747273	     -1.18429956	    -11.71422207	     18.58102154	     20.45412830	      6.33027743	     -7.09168801	    -17.08350730	      6.01544455	      0.19000861	      8.10041487	     19.33788376	     -5.38802245	    -13.21065559
      5.13500000	    -17.53882019	      2.69802894	      0.60757981	     -0.89058670	     -0.00959393	     -0.33370021	     38.18170578	     -4.43652315	     -3.15864010	    -55.67337461	     -0.83197280	    -11.65428655	     17.17359184	     19.62351537	      6.18479685	     -7.01918180	    -16.58949947	      6.04529865	      0.45547268	      8.01657169	     19.17931097	     -5.23857001	    -13.54847734
